# xmcd CD database file
#
# Track frame offsets:
#	150
#	2352
#	3645
#	20522
#	37420
#	38672
#	40990
#	56682
#	72372
#	76207
#	96982
#	117712
#	119045
#	135055
#	151080
#	152972
#	154865
#	156772
#	172935
#	189090
#	190452
#	191835
#	211187
#	230470
#	233122
#	263115
#	293097
#	295980
#	308085
#
# Disc length: 4269 seconds
#
# Revision: 0
# Processed by: cddbd v1.5.1PL0 Copyright (c) Steve Scherf et al.
# Submitted via: CDex 1.60beta1
#
DISCID=8f10ab1d
DTITLE=Jazz-tastic - Jazz-tastic
DYEAR=1900
DGENRE=Jazz
TTITLE0=Tuning
TTITLE1=Dont get around much anymore/example
TTITLE2=Dont get around much anymore/demo
TTITLE3=Dont get around much anymore/backing
TTITLE4=Minnie the Moocher/ example1
TTITLE5=Minnie the Moocher/ example2
TTITLE6=Minnie the Moocher/ Demo
TTITLE7=Minnie the Moocher/ Backing
TTITLE8=In Mellow Tone - Example
TTITLE9=In Mellow Tone - Demo
TTITLE10=In Mellow Tone - Backing
TTITLE11=Jumpin' at the woodside - Example
TTITLE12=Jumpin' at the Woodside - Demo
TTITLE13=Jumpin' at the Woodside - Backing
TTITLE14=Let there be Love - Example
TTITLE15=Let there be Love - Example 2
TTITLE16=Let there be Love - Example 3
TTITLE17=Let there be Love - Demo
TTITLE18=Let there be Love - Backing
TTITLE19=Moondance - Example
TTITLE20=Moondance - Example 2
TTITLE21=Moondance - Demo
TTITLE22=Moondance - Backing
TTITLE23=Stormy Wheather - Example
TTITLE24=Stormy Wheather - Demo
TTITLE25=Stormy Wheather - Backing
TTITLE26=Sweet Home Chicago - Example
TTITLE27=Sweet Home Chicago - Demo
TTITLE28=Sweet Home Chicago - Backing
EXTD=
EXTT0=
EXTT1=
EXTT2=
EXTT3=
EXTT4=
EXTT5=
EXTT6=
EXTT7=
EXTT8=
EXTT9=
EXTT10=
EXTT11=
EXTT12=
EXTT13=
EXTT14=
EXTT15=
EXTT16=
EXTT17=
EXTT18=
EXTT19=
EXTT20=
EXTT21=
EXTT22=
EXTT23=
EXTT24=
EXTT25=
EXTT26=
EXTT27=
EXTT28=
PLAYORDER=
